<?xml version="1.0" encoding="iso-8859-1"?>
<!-- Generator: Adobe Illustrator 19.0.0, SVG Export Plug-In . SVG Version: 6.00 Build 0)  -->
<svg version="1.1" id="Layer_1" xmlns="http://www.w3.org/2000/svg" xmlns:xlink="http://www.w3.org/1999/xlink" x="0px" y="0px"
	 fill="#ff7000" viewBox="0 0 512 512" style="enable-background:new 0 0 512 512;" xml:space="preserve">
<g>
	<g>
		<path d="M511.21,452.666l-78.552-250.45c-2.832-9.029-12.457-14.065-21.495-11.23l-29.452,9.238c0,0-27.485-76.093-32.165-102.551
			C340.884,48.715,306.132,8.31,255.911,8.31c-50.427,0-85.102,40.725-93.649,89.976c-4.567,26.315-31.972,101.938-31.972,101.938
			l-29.452-9.238c-9.043-2.836-18.665,2.207-21.495,11.23L0.79,452.666c-2.833,9.031,2.195,18.661,11.23,21.495l91.63,28.74
			c8.994,2.822,18.649-2.157,21.495-11.231l78.552-250.45c2.834-9.037-2.194-18.66-11.23-21.494l-29.452-9.238l16.848-53.716
			c17.039,23.616,44.77,39.029,76.049,39.029c31.355,0,59.144-15.489,76.172-39.202l16.901,53.888l-29.452,9.238
			c-9.037,2.834-14.065,12.458-11.23,21.495l78.552,250.451c2.849,9.086,12.514,14.047,21.495,11.23l91.63-28.74
			C509.016,471.326,514.044,461.702,511.21,452.666z M165.841,247.316L97.552,465.042l-58.905-18.476l68.288-217.725
			L165.841,247.316z M255.912,161.502c-32.78,0-59.448-26.668-59.448-59.448c0-32.78,26.668-59.448,59.448-59.448
			c32.78,0,59.447,26.67,59.447,59.45C315.359,134.834,288.691,161.502,255.912,161.502z M414.448,465.042l-68.288-217.726
			l58.905-18.475l68.288,217.726L414.448,465.042z"/>
	</g>
</g>
<g>
</g>
<g>
</g>
<g>
</g>
<g>
</g>
<g>
</g>
<g>
</g>
<g>
</g>
<g>
</g>
<g>
</g>
<g>
</g>
<g>
</g>
<g>
</g>
<g>
</g>
<g>
</g>
<g>
</g>
</svg>
