<?xml version="1.0" encoding="iso-8859-1"?>
<!-- Generator: Adobe Illustrator 16.0.0, SVG Export Plug-In . SVG Version: 6.00 Build 0)  -->
<!DOCTYPE svg PUBLIC "-//W3C//DTD SVG 1.1//EN" "http://www.w3.org/Graphics/SVG/1.1/DTD/svg11.dtd">
<svg version="1.1" id="Capa_1" xmlns="http://www.w3.org/2000/svg" xmlns:xlink="http://www.w3.org/1999/xlink" x="0px" y="0px"
	fill="#ff7000" width="937px" height="937px" viewBox="0 0 937 937" style="enable-background:new 0 0 937 937;" xml:space="preserve">
<g>
	<g>
		<path d="M711.4,45c0-24.9-20.1-45-45-45H270.6c-24.9,0-45,20.1-45,45v78.3h485.8V45z"/>
		<path d="M225.6,892c0,24.899,20.1,45,45,45h395.8c24.9,0,45-20.101,45-45v-78.3H225.6V892z"/>
		<path d="M177.4,154c-24.9,0-45,20.1-45,45v539c0,24.899,20.1,45,45,45h48.2h485.8h48.2c24.899,0,45-20.101,45-45V199
			c0-24.9-20.101-45-45-45h-48.2H225.6H177.4z M270.9,400c0.1-1.7,0.3-3.3,0.5-5c8.2-64.8,79.5-105.5,140.6-87.8
			c22.801,6.6,42.101,20.9,56.5,39.4c14.4-18.4,33.7-32.8,56.5-39.4c61.101-17.7,132.4,23,140.601,87.8c0.2,1.7,0.399,3.3,0.5,5
			c3.5,45-20.4,87.399-50.9,118.7c-34.7,35.399-78.3,59.899-117.1,90.199c-9.9,7.7-21.2,15.7-29.5,25c-8.4-9.3-19.7-17.3-29.5-25
			C400.3,578.5,356.7,554.1,322,518.7C291.2,487.399,267.4,445,270.9,400z"/>
	</g>
</g>
<g>
</g>
<g>
</g>
<g>
</g>
<g>
</g>
<g>
</g>
<g>
</g>
<g>
</g>
<g>
</g>
<g>
</g>
<g>
</g>
<g>
</g>
<g>
</g>
<g>
</g>
<g>
</g>
<g>
</g>
</svg>
